:version 1.10
:name ASF
:units
  mass 1
  length 1
  angle deg
:documentation
  ASF file generated by Kaydara
:root
  axis xyz
  order  tx ty tz rx ry rz
  position 0 0 0
  orientation 0 0 0
:bonedata
  begin
    id 1
    name RightUpLegDummy
    direction -0.718183 -0.695806 0.00816078
    length 4.904
    axis 0 0 0 xyz
  end
  begin
    id 2
    name RightUpLeg
    direction -0.0736652 -0.994202 0.0783343
    length 17.4976
    axis -2.72909 -3.00389 -4.00133 xyz
    dof rx ry rz
  end
  begin
    id 3
    name RightLeg
    direction -0.0389037 -0.994596 -0.0962598
    length 16.5821
    axis 3.95836 -18.5909 -4.46993 xyz
    dof rx ry rz
  end
  begin
    id 4
    name RightFoot
    direction -0.311643 -0.412678 0.855906
    length 3.77069
    axis -1.99483 -18.8351 -3.27644 xyz
    dof rx ry rz
  end
  begin
    id 5
    name RightToes
    direction -0.317852 0.0389852 0.947339
    length 3.85082
    axis -2.00228 -18.1713 -3.25211 xyz
    dof rx ry rz
  end
  begin
    id 6
    name SpineDummy
    direction 8.3039e-015 1 4.44677e-016
    length 4.6813
    axis 0 0 0 xyz
  end
  begin
    id 7
    name Spine
    direction -0.000262373 0.999988 0.00493267
    length 10.1015
    axis -0.00246081 0.00062579 0.0150362 xyz
    dof rx ry rz
  end
  begin
    id 8
    name Spine1
    direction 0 0 0
    length 0
    axis -0.00349562 0.000650293 0.0196666 xyz
    dof rx ry rz
  end
  begin
    id 9
    name HEadDummy
    direction -0.000343232 0.999999 0.00123745
    length 3.43865
    axis -0.00349562 0.000650293 0.0196666 xyz
  end
  begin
    id 10
    name HEad
    direction -0.0461221 0.980933 0.188796
    length 5.12695
    axis -0.00351404 -7.04812 0.0199272 xyz
    dof rx ry rz
  end
  begin
    id 11
    name LeftShoulder1Dummy
    direction 0.998904 -0.0399089 -0.0244534
    length 3.5433
    axis -0.00349562 0.000650293 0.0196666 xyz
  end
  begin
    id 12
    name LeftShoulder1
    direction 0.99951 1.64443e-005 0.0312999
    length 4.05031
    axis -0.00349562 0.000650293 0.0196666 xyz
    dof rx ry rz
  end
  begin
    id 13
    name LeftArm
    direction 0.984791 0.0515299 0.165927
    length 12.9126
    axis -64.823 -10.7743 5.20463 xyz
    dof rx ry rz
  end
  begin
    id 14
    name LeftForeArm
    direction 0.984968 0.0534808 0.16425
    length 10.8596
    axis -30.0462 -7.70601 1.87451 xyz
    dof rx ry rz
  end
  begin
    id 15
    name LeftHand
    direction 0.975871 0.0289682 0.216418
    length 6.62295
    axis -20.1348 -6.98077 1.86072 xyz
    dof rx ry rz
  end
  begin
    id 16
    name RightShoulderDummy
    direction -0.998877 -0.0405946 -0.0244307
    length 3.5433
    axis -0.00349562 0.000650293 0.0196666 xyz
  end
  begin
    id 17
    name RightShoulder
    direction -0.998933 -0.0249743 -0.0388558
    length 4.05031
    axis -0.0205316 -4.02113 1.41395 xyz
    dof rx ry rz
  end
  begin
    id 18
    name RightArm
    direction -0.997559 0.068664 0.0127103
    length 12.9638
    axis -67.3882 1.84188 -6.15987 xyz
    dof rx ry rz
  end
  begin
    id 19
    name RightForeArm
    direction -0.991508 0.0912848 0.0926241
    length 10.8312
    axis -22.1975 3.41087 -4.28711 xyz
    dof rx ry rz
  end
  begin
    id 20
    name RightHand
    direction -0.989262 0.0600788 0.133232
    length 6.57864
    axis -12.2911 2.17515 -4.39675 xyz
    dof rx ry rz
  end
  begin
    id 21
    name LeftUpLegDummy
    direction 0.718183 -0.695806 0.00816078
    length 4.904
    axis 0 0 0 xyz
  end
  begin
    id 22
    name LeftUpLeg
    direction 0.0831398 -0.99469 0.0606531
    length 17.4976
    axis -1.71016 2.29552 4.63832 xyz
    dof rx ry rz
  end
  begin
    id 23
    name LeftLeg
    direction 0.0498442 -0.991778 -0.117862
    length 16.5821
    axis 5.13757 15.5727 5.13348 xyz
    dof rx ry rz
  end
  begin
    id 24
    name LeftFoot
    direction 0.269026 -0.433896 0.85986
    length 3.77069
    axis -0.576502 15.6961 4.10267 xyz
    dof rx ry rz
  end
  begin
    id 25
    name LeftToes
    direction 0.277311 0.0251143 0.960452
    length 3.85048
    axis -0.576502 15.6961 4.10267 xyz
    dof rx ry rz
  end
:hierarchy
  begin
    root RightUpLegDummy SpineDummy LeftUpLegDummy
    RightUpLegDummy RightUpLeg
    RightUpLeg RightLeg
    RightLeg RightFoot
    RightFoot RightToes
    SpineDummy Spine
    Spine Spine1
    Spine1 HEadDummy LeftShoulder1Dummy RightShoulderDummy
    HEadDummy HEad
    LeftShoulder1Dummy LeftShoulder1
    LeftShoulder1 LeftArm
    LeftArm LeftForeArm
    LeftForeArm LeftHand
    RightShoulderDummy RightShoulder
    RightShoulder RightArm
    RightArm RightForeArm
    RightForeArm RightHand
    LeftUpLegDummy LeftUpLeg
    LeftUpLeg LeftLeg
    LeftLeg LeftFoot
    LeftFoot LeftToes
  end

:SAMPLES-PER-SECOND 30
:FULLY-SPECIFIED
:DEGREES
152
root  -4.29048 19.0955 74.0537 -136.543 6.87556 -177.313
RightUpLeg  -51.6975 -6.6458 12.2688
RightLeg  121.099 22.8295 -11.0344
RightFoot  -40.7688 2.69588 10.3955
RightToes  -5.82073e-011 -3.18055e-015 -2.98177e-016
Spine  50.2204 1.17769 5.08295
Spine1  -17.7851 3.49623 -0.763663
HEad  -16.6348 -6.71151 2.89681
LeftShoulder1  -3.88251e-019 9.70628e-020 -3.87848e-018
LeftArm  -10.8734 -18.3484 -73.3022
LeftForeArm  27.6737 -1.61292 -6.56576
LeftHand  -12.4527 -10.9993 76.9481
RightShoulder  6.62412 10.7123 30.5184
RightArm  7.37657 14.1968 54.1477
RightForeArm  30.8693 6.09449 -0.717049
RightHand  -12.9312 10.975 -77.2803
LeftUpLeg  -49.0126 0.304797 1.34724
LeftLeg  118.106 -19.0962 10.0464
LeftFoot  -43.6289 -4.58248 -16.2422
LeftToes  -2.27483e-011 -5.53417e-011 9.36564e-012
153
root  -4.29202 19.0905 74.0702 -136.484 6.83907 -177.292
RightUpLeg  -51.809 -6.66635 12.3588
RightLeg  121.114 22.8624 -11.0758
RightFoot  -40.7758 2.71397 10.4658
RightToes  -5.82073e-011 -3.18055e-015 -2.98177e-016
Spine  50.18 1.14508 5.10414
Spine1  -17.7674 3.46497 -0.814181
HEad  -16.535 -6.66544 2.83829
LeftShoulder1  -3.88251e-019 9.70628e-020 -3.87848e-018
LeftArm  -11.3519 -18.8123 -72.8994
LeftForeArm  28.1779 -1.67392 -6.83396
LeftHand  -12.435 -10.97 76.9711
RightShoulder  6.55043 10.7224 30.1157
RightArm  7.21736 13.8957 54.2635
RightForeArm  30.575 6.35602 -0.89148
RightHand  -12.8595 10.9321 -77.1134
LeftUpLeg  -49.1344 0.310595 1.35887
LeftLeg  118.105 -19.1434 10.1231
LeftFoot  -43.632 -4.53705 -16.0772
LeftToes  -2.27483e-011 -5.53417e-011 9.36564e-012
154
root  -4.3038 19.0798 74.0823 -136.46 6.80157 -177.283
RightUpLeg  -51.8552 -6.71546 12.3734
RightLeg  121.174 22.8453 -11.0293
RightFoot  -40.8122 2.75571 10.6196
RightToes  -5.82073e-011 -3.18055e-015 -2.98177e-016
Spine  50.1997 1.1333 5.10074
Spine1  -17.842 3.44597 -0.831237
HEad  -16.3492 -6.69641 2.91009
LeftShoulder1  -3.88251e-019 9.70628e-020 -3.87848e-018
LeftArm  -11.6843 -19.0656 -72.7855
LeftForeArm  28.6331 -1.69521 -6.8957
LeftHand  -12.3976 -10.9186 76.9832
RightShoulder  6.49102 10.7376 29.7763
RightArm  7.10364 13.5239 54.1954
RightForeArm  30.2705 6.7444 -1.04272
RightHand  -12.7916 10.9016 -76.9198
LeftUpLeg  -49.1988 0.298025 1.32985
LeftLeg  118.137 -19.1927 10.1917
LeftFoot  -43.6581 -4.49199 -15.9009
LeftToes  -2.27483e-011 -5.53417e-011 9.36564e-012
155
root  -4.31914 19.0692 74.0869 -136.487 6.8177 -177.294
RightUpLeg  -51.8399 -6.75396 12.327
RightLeg  121.188 22.8876 -11.0842
RightFoot  -40.8612 2.74026 10.5372
RightToes  -5.82073e-011 -3.18055e-015 -2.98177e-016
Spine  50.3834 1.25746 4.96788
Spine1  -18.192 3.50828 -0.741969
HEad  -16.0576 -6.80366 2.91895
LeftShoulder1  -3.88251e-019 9.70628e-020 -3.87848e-018
LeftArm  -11.7029 -18.6822 -73.4293
LeftForeArm  28.795 -1.59987 -6.36939
LeftHand  -12.301 -10.791 76.9952
RightShoulder  6.54276 10.758 30.0044
RightArm  7.18108 13.3333 53.6611
RightForeArm  30.252 7.08382 -1.03245
RightHand  -12.8231 10.9369 -76.937
LeftUpLeg  -49.1773 0.289519 1.24723
LeftLeg  118.155 -19.2389 10.2597
LeftFoot  -43.5964 -4.42653 -15.699
LeftToes  -2.27483e-011 -5.53417e-011 9.36564e-012
156
root  -4.33358 19.0674 74.0857 -136.483 6.82091 -177.251
RightUpLeg  -51.8615 -6.79179 12.3699
RightLeg  121.095 22.9994 -11.2784
RightFoot  -40.8929 2.64557 10.1427
RightToes  -5.82073e-011 -3.18055e-015 -2.98177e-016
Spine  50.5638 1.43725 4.81548
Spine1  -18.5321 3.6165 -0.629087
HEad  -15.8671 -6.83719 2.78233
LeftShoulder1  -3.88251e-019 9.70628e-020 -3.87848e-018
LeftArm  -11.5889 -18.2332 -74.2009
LeftForeArm  28.8131 -1.49721 -5.823
LeftHand  -12.2103 -10.6724 77.0031
RightShoulder  6.64042 10.7627 30.5012
RightArm  7.28886 13.2884 52.9915
RightForeArm  30.3801 7.40963 -1.04626
RightHand  -12.9143 11.0059 -77.1016
LeftUpLeg  -49.2109 0.305681 1.25189
LeftLeg  118.157 -19.2646 10.3
LeftFoot  -43.4321 -4.34277 -15.4854
LeftToes  -2.27483e-011 -5.53417e-011 9.36564e-012
157
root  -4.35359 19.0731 74.0823 -136.388 6.70743 -177.165
RightUpLeg  -51.9745 -6.91319 12.5135
RightLeg  120.99 23.0518 -11.3931
RightFoot  -40.887 2.56449 9.81815
RightToes  -5.82073e-011 -3.18055e-015 -2.98177e-016
Spine  50.5211 1.52642 4.79186
Spine1  -18.5113 3.68645 -0.602027
HEad  -15.8995 -6.57344 2.61012
LeftShoulder1  -3.88251e-019 9.70628e-020 -3.87848e-018
LeftArm  -11.4286 -18.3687 -74.3156
LeftForeArm  28.9416 -1.52522 -5.95632
LeftHand  -12.279 -10.7734 76.9575
RightShoulder  6.66913 10.7501 30.6751
RightArm  7.25524 13.2117 52.5513
RightForeArm  30.2735 7.82882 -1.24177
RightHand  -12.9448 11.0363 -77.1306
LeftUpLeg  -49.42 0.26754 1.37211
LeftLeg  118.166 -19.2933 10.3433
LeftFoot  -43.2287 -4.25482 -15.2746
LeftToes  -2.27483e-011 -5.53417e-011 9.36564e-012
